<?xml version="1.0" encoding="UTF-8" standalone="no"?>
<!-- Created with Inkscape (http://www.inkscape.org/) -->

<svg
   xmlns:dc="http://purl.org/dc/elements/1.1/"
   xmlns:cc="http://creativecommons.org/ns#"
   xmlns:rdf="http://www.w3.org/1999/02/22-rdf-syntax-ns#"
   xmlns:svg="http://www.w3.org/2000/svg"
   xmlns="http://www.w3.org/2000/svg"
   xmlns:sodipodi="http://sodipodi.sourceforge.net/DTD/sodipodi-0.dtd"
   xmlns:inkscape="http://www.inkscape.org/namespaces/inkscape"
   width="297mm"
   height="210mm"
   viewBox="0 0 297 210"
   version="1.1"
   id="svg8"
   sodipodi:docname="manoblanco.svg"
   inkscape:version="0.92.2 (5c3e80d, 2017-08-06)">
  <defs
     id="defs2">
    <inkscape:path-effect
       effect="spiro"
       id="path-effect2943"
       is_visible="true" />
    <inkscape:path-effect
       effect="spiro"
       id="path-effect2914"
       is_visible="true" />
    <inkscape:path-effect
       effect="spiro"
       id="path-effect2910"
       is_visible="true" />
    <inkscape:path-effect
       effect="spiro"
       id="path-effect2844"
       is_visible="true" />
    <inkscape:path-effect
       effect="spiro"
       id="path-effect2840"
       is_visible="true" />
    <inkscape:path-effect
       effect="spiro"
       id="path-effect2836"
       is_visible="true" />
    <inkscape:path-effect
       effect="spiro"
       id="path-effect2832"
       is_visible="true" />
  </defs>
  <sodipodi:namedview
     id="base"
     pagecolor="#ffffff"
     bordercolor="#666666"
     borderopacity="1.0"
     inkscape:pageopacity="0.0"
     inkscape:pageshadow="2"
     inkscape:zoom="0.47"
     inkscape:cx="514.72005"
     inkscape:cy="541.26235"
     inkscape:document-units="mm"
     inkscape:current-layer="layer1"
     showgrid="false"
     inkscape:window-width="1366"
     inkscape:window-height="705"
     inkscape:window-x="-8"
     inkscape:window-y="-8"
     inkscape:window-maximized="1"
     inkscape:measure-start="0,0"
     inkscape:measure-end="0,0" />
  <metadata
     id="metadata5">
    <rdf:RDF>
      <cc:Work
         rdf:about="">
        <dc:format>image/svg+xml</dc:format>
        <dc:type
           rdf:resource="http://purl.org/dc/dcmitype/StillImage" />
        <dc:title></dc:title>
      </cc:Work>
    </rdf:RDF>
  </metadata>
  <g
     inkscape:label="Capa 1"
     inkscape:groupmode="layer"
     id="layer1"
     transform="translate(0,-87)">
    <path
       style="opacity:0.997;fill:#ffcc00;fill-opacity:1;fill-rule:nonzero;stroke:none;stroke-width:4.02519703;stroke-linecap:butt;stroke-linejoin:miter;stroke-miterlimit:4;stroke-dasharray:none;stroke-dashoffset:0;stroke-opacity:1;paint-order:stroke fill markers"
       d=""
       id="path938"
       inkscape:connector-curvature="0"
       transform="matrix(0.26458333,0,0,0.26458333,0,87)" />
    <path
       style="opacity:0.997;fill:#ffcc00;fill-opacity:1;fill-rule:nonzero;stroke:none;stroke-width:4.02519703;stroke-linecap:butt;stroke-linejoin:miter;stroke-miterlimit:4;stroke-dasharray:none;stroke-dashoffset:0;stroke-opacity:1;paint-order:stroke fill markers"
       d=""
       id="path940"
       inkscape:connector-curvature="0"
       transform="matrix(0.26458333,0,0,0.26458333,0,87)" />
    <path
       style="opacity:0.997;fill:#aa4400;fill-opacity:1;fill-rule:nonzero;stroke:none;stroke-width:4.02519703;stroke-linecap:butt;stroke-linejoin:miter;stroke-miterlimit:4;stroke-dasharray:none;stroke-dashoffset:0;stroke-opacity:1;paint-order:stroke fill markers"
       d=""
       id="path972"
       inkscape:connector-curvature="0"
       transform="matrix(0.26458333,0,0,0.26458333,0,87)" />
    <path
       style="opacity:0.997;fill:#ffd42a;fill-opacity:1;fill-rule:nonzero;stroke:none;stroke-width:4.02519703;stroke-linecap:butt;stroke-linejoin:miter;stroke-miterlimit:4;stroke-dasharray:none;stroke-dashoffset:0;stroke-opacity:1;paint-order:stroke fill markers"
       d=""
       id="path998"
       inkscape:connector-curvature="0"
       transform="matrix(0.26458333,0,0,0.26458333,0,87)" />
    <path
       style="opacity:0.997;fill:#ffd42a;fill-opacity:1;fill-rule:nonzero;stroke:none;stroke-width:4.02519703;stroke-linecap:butt;stroke-linejoin:miter;stroke-miterlimit:4;stroke-dasharray:none;stroke-dashoffset:0;stroke-opacity:1;paint-order:stroke fill markers"
       d=""
       id="path1046"
       inkscape:connector-curvature="0"
       transform="matrix(0.26458333,0,0,0.26458333,0,87)" />
    <path
       style="opacity:0.997;fill:#ffd42a;fill-opacity:1;fill-rule:nonzero;stroke:none;stroke-width:4.02519703;stroke-linecap:butt;stroke-linejoin:miter;stroke-miterlimit:4;stroke-dasharray:none;stroke-dashoffset:0;stroke-opacity:1;paint-order:stroke fill markers"
       d=""
       id="path1048"
       inkscape:connector-curvature="0"
       transform="matrix(0.26458333,0,0,0.26458333,0,87)" />
    <path
       style="opacity:0.997;fill:#ffd42a;fill-opacity:1;fill-rule:nonzero;stroke:none;stroke-width:4.02519703;stroke-linecap:butt;stroke-linejoin:miter;stroke-miterlimit:4;stroke-dasharray:none;stroke-dashoffset:0;stroke-opacity:1;paint-order:stroke fill markers"
       d=""
       id="path1058"
       inkscape:connector-curvature="0"
       transform="matrix(0.26458333,0,0,0.26458333,0,87)" />
    <path
       style="opacity:0.997;fill:#cccccc;fill-opacity:1;fill-rule:nonzero;stroke:none;stroke-width:12.47244072;stroke-linecap:butt;stroke-linejoin:miter;stroke-miterlimit:4;stroke-dasharray:none;stroke-dashoffset:0;stroke-opacity:1;paint-order:stroke fill markers"
       d=""
       id="path1104"
       inkscape:connector-curvature="0"
       transform="matrix(0.26458333,0,0,0.26458333,0,87)" />
    <path
       style="opacity:0.997;fill:#a05a2c;fill-opacity:1;fill-rule:nonzero;stroke:none;stroke-width:12.47244072;stroke-linecap:butt;stroke-linejoin:miter;stroke-miterlimit:4;stroke-dasharray:none;stroke-dashoffset:0;stroke-opacity:1;paint-order:stroke fill markers"
       d=""
       id="path1130"
       inkscape:connector-curvature="0"
       transform="matrix(0.26458333,0,0,0.26458333,0,87)" />
    <path
       style="opacity:0.997;fill:#a05a2c;fill-opacity:1;fill-rule:nonzero;stroke:none;stroke-width:12.47244072;stroke-linecap:butt;stroke-linejoin:miter;stroke-miterlimit:4;stroke-dasharray:none;stroke-dashoffset:0;stroke-opacity:1;paint-order:stroke fill markers"
       d=""
       id="path1260"
       inkscape:connector-curvature="0"
       transform="matrix(0.26458333,0,0,0.26458333,0,87)" />
    <path
       style="opacity:0.997;fill:#ffd42a;fill-opacity:1;fill-rule:nonzero;stroke:none;stroke-width:12.47244072;stroke-linecap:butt;stroke-linejoin:miter;stroke-miterlimit:4;stroke-dasharray:none;stroke-dashoffset:0;stroke-opacity:1;paint-order:stroke fill markers"
       d=""
       id="path1622"
       inkscape:connector-curvature="0"
       transform="matrix(0.26458333,0,0,0.26458333,0,87)" />
    <path
       style="opacity:0.997;fill:#c87137;fill-opacity:1;fill-rule:nonzero;stroke:none;stroke-width:12.47244072;stroke-linecap:butt;stroke-linejoin:miter;stroke-miterlimit:4;stroke-dasharray:none;stroke-dashoffset:0;stroke-opacity:1;paint-order:stroke fill markers"
       d=""
       id="path1626"
       inkscape:connector-curvature="0"
       transform="matrix(0.26458333,0,0,0.26458333,0,87)" />
    <path
       style="opacity:1;fill:#ffffff;fill-opacity:1;fill-rule:nonzero;stroke:none;stroke-width:0.66499996;stroke-linecap:butt;stroke-linejoin:miter;stroke-miterlimit:4;stroke-dasharray:none;stroke-dashoffset:0;stroke-opacity:1;paint-order:stroke fill markers"
       d="m 146.29969,216.25997 c 0,-8.97862 0.15489,-8.61278 -6.50584,-15.36612 -4.90835,-4.97661 -5.56478,-5.78764 -7.07088,-8.73617 -1.45906,-2.85642 -2.17246,-3.7625 -5.88743,-7.47746 -4.59111,-4.5911 -4.85367,-5.17437 -2.65581,-5.89973 1.87256,-0.618 5.25462,0.15362 7.55315,1.72326 0.7571,0.51702 2.36946,2.12587 3.58302,3.57522 2.45025,2.92632 3.35905,3.61124 3.81931,2.87841 0.16028,-0.25519 0.53882,-1.5689 0.84121,-2.91932 0.50162,-2.24022 0.50268,-2.70585 0.012,-5.31446 -0.29577,-1.57252 -1.29985,-5.32777 -2.23128,-8.34501 -1.87209,-6.06437 -3.80073,-14.20294 -3.80073,-16.03852 0,-1.71573 1.15483,-3.05719 2.51697,-2.92371 1.32908,0.13025 2.37183,1.82848 3.11681,5.07607 0.84622,3.68898 5.69913,15.07708 6.76096,15.86564 1.38686,1.02995 1.61766,0.58383 1.15203,-2.22678 -0.89329,-5.39203 -1.55628,-9.94485 -2.27092,-15.59484 -0.70532,-5.57627 -0.71431,-5.94754 -0.1643,-6.78695 0.83914,-1.28069 2.1428,-1.69896 3.17906,-1.01999 1.0694,0.70071 1.29635,1.3505 1.9788,5.66554 0.31168,1.97069 0.93783,5.23328 1.39145,7.25019 0.45362,2.0169 1.05895,5.45287 1.34519,7.63547 0.55658,4.24402 0.847,5.10108 1.92385,5.67738 1.04214,0.55774 1.28369,0.18792 1.51925,-2.32596 0.11909,-1.27091 0.53396,-3.77651 0.92194,-5.568 0.40513,-1.87068 0.80766,-5.41376 0.9456,-8.3232 0.25566,-5.39225 0.40294,-5.83049 2.099,-6.24551 0.61685,-0.15094 1.15708,0.0109 1.84625,0.55297 l 0.97425,0.76634 -0.22708,7.05329 c -0.1249,3.8793 -0.39176,8.82762 -0.59304,10.99626 -0.41651,4.48773 -0.12423,6.04187 1.07717,5.72769 0.37406,-0.0978 0.59364,-0.0379 0.48796,0.13305 -0.10568,0.17099 0.11371,0.3109 0.48752,0.3109 1.52411,0 5.25801,-4.30713 7.58636,-8.75102 2.35199,-4.48902 4.08149,-5.69855 5.35942,-3.74813 0.49213,0.75106 0.51314,1.07366 0.15068,2.31436 -0.23164,0.7929 -0.89781,2.29024 -1.48034,3.32742 -0.58256,1.03717 -1.74652,3.19724 -2.58662,4.80015 -4.40264,8.40028 -4.2079,7.80778 -5.04892,15.36079 -0.63742,5.72446 -1.01017,7.42914 -2.3016,10.52557 -2.42634,5.81761 -3.15317,12.11494 -2.15513,18.67246 0.27148,1.78377 0.46157,3.27314 0.42243,3.3097 -0.0391,0.0366 -4.1213,0.1794 -9.07146,0.31743 l -9.00029,0.25097 z"
       id="path2947"
       inkscape:connector-curvature="0" />
  </g>
</svg>
